<!-- Generated by IcoMoon.io -->
<svg version="1.1" xmlns="http://www.w3.org/2000/svg" width="32" height="32" viewBox="0 0 32 32">
<title>basket-16</title>
<path d="M5.354 10.124c0.271-1.667 1.7-2.924 3.423-2.924 0 0 0 0 0.001 0h14.444c1.706 0 3.158 1.24 3.424 2.924l2.566 16.208c0.017 0.1 0.026 0.216 0.026 0.334 0 1.178-0.954 2.133-2.132 2.134h-22.212c-1.178-0.001-2.132-0.956-2.132-2.134 0-0.118 0.010-0.234 0.028-0.346l-0.002 0.012 2.566-16.208zM8.778 8.8c-0.92 0-1.7 0.668-1.844 1.574l-2.566 16.21c-0.052 0.324 0.2 0.616 0.526 0.616h22.212c0.294-0.001 0.532-0.24 0.532-0.534 0-0.029-0.002-0.057-0.007-0.085l0 0.003-2.566-16.21c-0.146-0.897-0.916-1.574-1.843-1.574-0 0-0.001 0-0.001 0h-14.442z"></path>
<path d="M10.466 7.572c0-3.019 2.448-5.467 5.467-5.467s5.467 2.448 5.467 5.467v0 0.668h-1.6v-0.668c0-2.136-1.731-3.867-3.867-3.867s-3.867 1.731-3.867 3.867v0.668h-1.6v-0.668z"></path>
</svg>
