<!-- Generated by IcoMoon.io -->
<svg version="1.1" xmlns="http://www.w3.org/2000/svg" width="32" height="32" viewBox="0 0 32 32">
<title>basket-24</title>
<path d="M5.353 10.124c0.271-1.667 1.701-2.924 3.424-2.924 0 0 0 0 0 0h14.445c0 0 0 0 0 0 1.723 0 3.152 1.257 3.421 2.904l0.003 0.020 2.567 16.209c0.017 0.1 0.026 0.216 0.026 0.333 0 1.178-0.955 2.133-2.133 2.133h-22.213c-1.178-0-2.133-0.955-2.133-2.133 0-0.118 0.010-0.233 0.028-0.346l-0.002 0.012 2.567-16.209zM8.777 8.8c-0 0-0 0-0 0-0.928 0-1.698 0.677-1.842 1.564l-0.001 0.011-2.565 16.209c-0.004 0.025-0.006 0.053-0.006 0.083 0 0.294 0.239 0.533 0.533 0.533h22.211c0.294-0 0.533-0.239 0.533-0.533 0-0.029-0.002-0.058-0.007-0.086l0 0.003-2.565-16.211c-0.147-0.897-0.916-1.573-1.843-1.573-0 0-0 0-0.001 0h-14.445z"></path>
<path d="M10.467 7.573c0-3.019 2.447-5.467 5.467-5.467s5.467 2.447 5.467 5.467v0 0.667h-1.6v-0.667c0-2.135-1.731-3.867-3.867-3.867s-3.867 1.731-3.867 3.867v0 0.667h-1.6v-0.667z"></path>
</svg>
