<!-- Generated by IcoMoon.io -->
<svg version="1.1" xmlns="http://www.w3.org/2000/svg" width="32" height="32" viewBox="0 0 32 32">
<title>heart-16</title>
<path fill="#4e4e4e" d="M16 11.154l1.924-2.584c0.99-1.326 2.55-2.17 4.298-2.17 2.95 0 5.378 2.418 5.378 5.446v-0.001c0 0.006 0 0.011 0 0.017 0 1.345-0.487 2.577-1.288 3.52l-0.026 0.030-0.022 0.028c-2.158 2.724-7.328 7.452-9.968 9.812l-0.291-0.232c-2.116-1.741-4.189-3.532-6.077-5.248l-0.051-0.045c-1.192-1.075-2.339-2.199-3.465-3.401-0.462-0.51-0.814-0.936-1.052-1.27-0.17-0.238-0.232-0.36-0.244-0.384l-0.046-0.178-0.11-0.228c-0.358-0.726-0.56-1.546-0.56-2.42 0-3.026 2.43-5.446 5.376-5.446h-0c0 0 0.001 0 0.001 0 1.757 0 3.315 0.847 4.299 2.17l1.924 2.584zM28.144 16.93c1.154-1.358 1.856-3.133 1.856-5.070 0-0.005 0-0.010 0-0.014v0.001c0-4.334-3.482-7.846-7.778-7.846-1.676 0-3.228 0.534-4.498 1.444-0.658 0.472-1.24 1.044-1.724 1.694-0.49-0.654-1.059-1.213-1.701-1.678l-0.023-0.016c-1.245-0.903-2.803-1.444-4.488-1.444-0.004 0-0.009 0-0.013 0h0.001c-4.292 0-7.776 3.512-7.776 7.846 0 1.248 0.29 2.428 0.804 3.476 0.6 2.398 9.846 10.062 12.716 12.394 0.218 0.177 0.499 0.284 0.806 0.284 0.326 0 0.623-0.121 0.85-0.321l-0.001 0.001c2.228-1.97 8.436-7.55 10.97-10.75z"></path>
</svg>
