<!-- Generated by IcoMoon.io -->
<svg version="1.1" xmlns="http://www.w3.org/2000/svg" width="32" height="32" viewBox="0 0 32 32">
<title>pin-24</title>
<path d="M7.467 13.6c0-4.882 3.842-8.8 8.533-8.8s8.533 3.918 8.533 8.8c0 2.167-1.097 4.46-2.721 6.719-1.614 2.246-3.664 4.349-5.425 6.141-0.213 0.217-0.563 0.217-0.776 0-1.761-1.793-3.811-3.896-5.425-6.141-1.623-2.259-2.721-4.552-2.721-6.719zM16 3.2c-5.618 0-10.133 4.678-10.133 10.4 0 2.674 1.335 5.306 3.021 7.653 1.696 2.361 3.833 4.547 5.582 6.329 0.84 0.855 2.219 0.855 3.059 0 1.749-1.781 3.886-3.968 5.582-6.329 1.686-2.347 3.021-4.978 3.021-7.653 0-5.722-4.516-10.4-10.133-10.4zM13.467 13.333c0-1.399 1.134-2.533 2.533-2.533s2.533 1.134 2.533 2.533-1.134 2.533-2.533 2.533c-1.399 0-2.533-1.134-2.533-2.533zM16 9.2c-2.283 0-4.133 1.851-4.133 4.133s1.851 4.133 4.133 4.133 4.133-1.851 4.133-4.133c0-2.283-1.851-4.133-4.133-4.133z"></path>
</svg>
