<!-- Generated by IcoMoon.io -->
<svg version="1.1" xmlns="http://www.w3.org/2000/svg" width="34" height="32" viewBox="0 0 34 32">
<title>pin-16</title>
<path d="M16.364 5c-4.87 0-8.818 3.948-8.818 8.818 0 3.416 2.22 6.718 4.635 9.267 1.187 1.253 2.377 2.278 3.272 2.991 0.359 0.286 0.67 0.521 0.911 0.698 0.242-0.178 0.552-0.412 0.911-0.698 0.895-0.712 2.085-1.738 3.272-2.991 2.415-2.549 4.635-5.851 4.635-9.267 0-4.87-3.948-8.818-8.818-8.818zM16.364 28c-0.555 0.832-0.555 0.832-0.555 0.832l-0.003-0.002-0.007-0.005-0.025-0.017-0.090-0.061c-0.077-0.053-0.188-0.131-0.328-0.232-0.28-0.202-0.676-0.497-1.15-0.874-0.946-0.753-2.21-1.842-3.478-3.18-2.494-2.633-5.183-6.422-5.183-10.642 0-5.975 4.843-10.818 10.818-10.818s10.818 4.843 10.818 10.818c0 4.22-2.689 8.009-5.183 10.642-1.268 1.338-2.532 2.426-3.478 3.18-0.474 0.377-0.87 0.672-1.15 0.874-0.14 0.101-0.251 0.179-0.328 0.232l-0.114 0.078-0.007 0.005-0.002 0.002c0 0-0.001 0.001-0.556-0.831zM16.364 28l0.556 0.831c-0.336 0.224-0.775 0.224-1.111 0l0.555-0.832z"></path>
<path d="M16.364 11.545c-1.255 0-2.273 1.018-2.273 2.273s1.018 2.273 2.273 2.273c1.255 0 2.273-1.018 2.273-2.273s-1.018-2.273-2.273-2.273zM12.091 13.818c0-2.36 1.913-4.273 4.273-4.273s4.273 1.913 4.273 4.273c0 2.36-1.913 4.273-4.273 4.273s-4.273-1.913-4.273-4.273z"></path>
</svg>
