<?xml version="1.0" encoding="utf-8"?><svg xmlns="http://www.w3.org/2000/svg" xmlns:xlink="http://www.w3.org/1999/xlink"><symbol viewBox="0 0 32 32" id="icon-basket-16" xmlns="http://www.w3.org/2000/svg"><path d="M4 9.127a1 1 0 0 1 1-1h22a1 1 0 0 1 1 1v17.967c0 1.923-1.497 3.567-3.444 3.567H7.445c-1.948 0-3.444-1.643-3.444-3.567V9.127zm2 1v16.967c0 .912.692 1.567 1.444 1.567h17.111c.752 0 1.444-.655 1.444-1.567V10.127h-20z"/><path d="M11.533 11.909a1 1 0 0 0 1-1V6.751c0-.398.06-.78.171-1.137.124-.4.312-.771.552-1.1A3.635 3.635 0 0 1 16.2 2.999c1.767 0 3.262 1.285 3.597 3.019.046.236.07.481.07.732v4.158a1 1 0 0 0 2 0V6.75a5.82 5.82 0 0 0-.106-1.111C21.253 3.007 18.968.999 16.2.999a5.634 5.634 0 0 0-4.561 2.338 5.738 5.738 0 0 0-.844 1.684 5.823 5.823 0 0 0-.261 1.729v4.158a1 1 0 0 0 1 1z"/></symbol><symbol viewBox="0 0 32 32" id="icon-basket-24" xmlns="http://www.w3.org/2000/svg"><path d="M4 9.127a1 1 0 0 1 1-1h22a1 1 0 0 1 1 1v17.967c0 1.923-1.497 3.567-3.444 3.567H7.445c-1.948 0-3.444-1.643-3.444-3.567V9.127zm2 1v16.967c0 .912.692 1.567 1.444 1.567h17.111c.752 0 1.444-.655 1.444-1.567V10.127h-20z"/><path d="M11.533 11.909a1 1 0 0 0 1-1V6.751c0-.398.06-.78.171-1.137.124-.4.312-.771.552-1.1A3.635 3.635 0 0 1 16.2 2.999c1.767 0 3.262 1.285 3.597 3.019.046.236.07.481.07.732v4.158a1 1 0 0 0 2 0V6.75a5.82 5.82 0 0 0-.106-1.111C21.253 3.007 18.968.999 16.2.999a5.634 5.634 0 0 0-4.561 2.338 5.738 5.738 0 0 0-.844 1.684 5.823 5.823 0 0 0-.261 1.729v4.158a1 1 0 0 0 1 1z"/></symbol><symbol viewBox="0 0 32 32" id="icon-heart-16" xmlns="http://www.w3.org/2000/svg"><path d="m16 11.154 1.924-2.584a5.351 5.351 0 0 1 4.298-2.17c2.95 0 5.378 2.418 5.378 5.446v-.001.017a5.425 5.425 0 0 1-1.288 3.52l-.026.03-.022.028c-2.158 2.724-7.328 7.452-9.968 9.812l-.291-.232a165.158 165.158 0 0 1-6.077-5.248l-.051-.045a57.434 57.434 0 0 1-3.465-3.401c-.462-.51-.814-.936-1.052-1.27a3.007 3.007 0 0 1-.244-.384l-.046-.178-.11-.228a5.452 5.452 0 0 1-.56-2.42C4.4 8.82 6.83 6.4 9.776 6.4h.001a5.34 5.34 0 0 1 4.299 2.17L16 11.154zm12.144 5.776A7.813 7.813 0 0 0 30 11.86v-.014.001c0-4.334-3.482-7.846-7.778-7.846a7.694 7.694 0 0 0-4.498 1.444A7.87 7.87 0 0 0 16 7.139a7.931 7.931 0 0 0-1.701-1.678l-.023-.016a7.634 7.634 0 0 0-4.488-1.444h-.013.001C5.484 4.001 2 7.513 2 11.847c0 1.248.29 2.428.804 3.476.6 2.398 9.846 10.062 12.716 12.394a1.28 1.28 0 0 0 1.656-.037l-.001.001c2.228-1.97 8.436-7.55 10.97-10.75z"/></symbol><symbol viewBox="0 0 32 32" id="icon-heart-24" xmlns="http://www.w3.org/2000/svg"><path d="m16 10.087 1.307-1.852C18.455 6.608 20.246 5.6 22.223 5.6c3.319 0 6.177 2.895 6.177 6.681v-.002.045c0 1.64-.567 3.149-1.504 4.325l-.016.02-.016.019c-2.351 3.133-8.123 8.649-10.548 10.92-1.505-1.296-4.329-3.769-6.895-6.243C8.062 20.057 6.8 18.77 5.85 17.672a16.092 16.092 0 0 1-1.12-1.427 4.645 4.645 0 0 1-.291-.483l.003.006a1.224 1.224 0 0 1-.082-.185s0-.001 0 0l-.037-.16-.069-.147a7.093 7.093 0 0 1-.655-2.997c0-3.785 2.859-6.68 6.177-6.68 1.977 0 3.768 1.009 4.916 2.633l1.307 1.853zm-1.075-4.014C13.553 4.782 11.752 4 9.778 4c-4.297 0-7.779 3.707-7.779 8.28 0 1.32.289 2.565.804 3.672.599 2.529 9.847 10.62 12.716 13.08.215.187.498.3.807.3.328 0 .626-.128.847-.337l-.001.001c2.228-2.08 8.437-7.969 10.971-11.347a8.516 8.516 0 0 0 1.856-5.326v-.045.002c0-4.573-3.483-8.28-7.777-8.28-1.973 0-3.776.783-5.148 2.073a8.245 8.245 0 0 0-1.058 1.214l-.017.025a8.145 8.145 0 0 0-1.071-1.236l-.004-.004z"/></symbol><symbol viewBox="0 0 34 32" id="icon-pin-16" xmlns="http://www.w3.org/2000/svg"><path d="M16.364 5a8.818 8.818 0 0 0-8.818 8.818c0 3.416 2.22 6.718 4.635 9.267a32.226 32.226 0 0 0 4.183 3.689 32.108 32.108 0 0 0 4.183-3.689c2.415-2.549 4.635-5.851 4.635-9.267A8.818 8.818 0 0 0 16.364 5zm0 23-.555.832-.003-.002-.007-.005-.025-.017-.09-.061a31.12 31.12 0 0 1-1.478-1.106 34.21 34.21 0 0 1-3.478-3.18c-2.494-2.633-5.183-6.422-5.183-10.642 0-5.975 4.843-10.818 10.818-10.818s10.818 4.843 10.818 10.818c0 4.22-2.689 8.009-5.183 10.642a34.33 34.33 0 0 1-4.628 4.054c-.14.101-.251.179-.328.232l-.114.078-.007.005-.002.002s-.001.001-.556-.831zm0 0 .556.831a1.002 1.002 0 0 1-1.111 0l.555-.832z"/><path d="M16.364 11.545a2.273 2.273 0 1 0 0 4.547 2.273 2.273 0 0 0 0-4.547zm-4.273 2.273a4.273 4.273 0 1 1 8.546 0 4.273 4.273 0 0 1-8.546 0z"/></symbol><symbol viewBox="0 0 32 32" id="icon-pin-24" xmlns="http://www.w3.org/2000/svg"><path d="M15.818 5A8.818 8.818 0 0 0 7 13.818c0 3.416 2.22 6.718 4.635 9.267a32.226 32.226 0 0 0 4.183 3.689 32.226 32.226 0 0 0 4.183-3.689c2.415-2.549 4.635-5.851 4.635-9.267A8.818 8.818 0 0 0 15.818 5zm0 23-.555.832-.003-.002-.007-.005-.025-.017-.09-.062a31.12 31.12 0 0 1-1.478-1.106 34.21 34.21 0 0 1-3.478-3.18c-2.494-2.633-5.183-6.422-5.183-10.642C4.999 7.843 9.842 3 15.817 3s10.818 4.843 10.818 10.818c0 4.22-2.689 8.009-5.183 10.642a34.33 34.33 0 0 1-4.628 4.054c-.14.101-.251.179-.328.232l-.09.062-.025.017-.007.005-.002.001s-.001.001-.556-.831zm0 0 .556.831a1.004 1.004 0 0 1-1.111.001l.555-.832z"/><path d="M15.818 11.545a2.273 2.273 0 1 0 0 4.547 2.273 2.273 0 0 0 0-4.547zm-4.273 2.273a4.273 4.273 0 1 1 8.546 0 4.273 4.273 0 0 1-8.546 0z"/></symbol></svg>