<svg xmlns="http://www.w3.org/2000/svg" width="32" height="32"><path d="M5.353 10.124A3.471 3.471 0 0 1 8.777 7.2h14.445a3.467 3.467 0 0 1 3.421 2.904l.003.02 2.567 16.209a2.133 2.133 0 0 1-2.107 2.466H4.893a2.133 2.133 0 0 1-2.105-2.479l-.002.012 2.567-16.209zM8.777 8.8c-.928 0-1.698.677-1.842 1.564l-.001.011-2.565 16.209a.533.533 0 0 0 .527.616h22.211a.533.533 0 0 0 .526-.619v.003l-2.565-16.211A1.87 1.87 0 0 0 23.225 8.8H8.779z"/><path d="M10.467 7.573a5.467 5.467 0 1 1 10.934 0v.667h-1.6v-.667a3.867 3.867 0 0 0-7.734 0v.667h-1.6v-.667z"/></svg>