<svg xmlns="http://www.w3.org/2000/svg" width="32" height="32"><path d="M7.467 13.6c0-4.882 3.842-8.8 8.533-8.8s8.533 3.918 8.533 8.8c0 2.167-1.097 4.46-2.721 6.719-1.614 2.246-3.664 4.349-5.425 6.141a.544.544 0 0 1-.776 0c-1.761-1.793-3.811-3.896-5.425-6.141-1.623-2.259-2.721-4.552-2.721-6.719zM16 3.2c-5.618 0-10.133 4.678-10.133 10.4 0 2.674 1.335 5.306 3.021 7.653 1.696 2.361 3.833 4.547 5.582 6.329.84.855 2.219.855 3.059 0 1.749-1.781 3.886-3.968 5.582-6.329 1.686-2.347 3.021-4.978 3.021-7.653 0-5.722-4.516-10.4-10.133-10.4zm-2.533 10.133a2.533 2.533 0 1 1 5.066 0 2.533 2.533 0 0 1-5.066 0zM16 9.2a4.133 4.133 0 1 0 0 8.266A4.133 4.133 0 0 0 16 9.2z"/></svg>