<svg xmlns="http://www.w3.org/2000/svg" width="32" height="32"><path d="M5.354 10.124A3.47 3.47 0 0 1 8.777 7.2h14.445a3.465 3.465 0 0 1 3.424 2.924l2.566 16.208a2.134 2.134 0 0 1-2.106 2.468H4.894a2.134 2.134 0 0 1-2.104-2.48l-.002.012 2.566-16.208zM8.778 8.8c-.92 0-1.7.668-1.844 1.574l-2.566 16.21c-.052.324.2.616.526.616h22.212a.534.534 0 0 0 .525-.619v.003l-2.566-16.21A1.87 1.87 0 0 0 23.222 8.8H8.779z"/><path d="M10.466 7.572a5.467 5.467 0 0 1 10.934 0v.668h-1.6v-.668a3.867 3.867 0 1 0-7.734 0v.668h-1.6v-.668z"/></svg>