<svg aria-hidden="true" style="position: absolute; width: 0; height: 0; overflow: hidden;" version="1.1" xmlns="http://www.w3.org/2000/svg" xmlns:xlink="http://www.w3.org/1999/xlink">
<defs>
<symbol id="icon-heart-16" viewBox="0 0 32 32">
<path d="M16 11.154l1.924-2.584c0.99-1.326 2.55-2.17 4.298-2.17 2.95 0 5.378 2.418 5.378 5.446v-0.001c0 0.006 0 0.011 0 0.017 0 1.345-0.487 2.577-1.288 3.52l-0.026 0.030-0.022 0.028c-2.158 2.724-7.328 7.452-9.968 9.812l-0.291-0.232c-2.116-1.741-4.189-3.532-6.077-5.248l-0.051-0.045c-1.192-1.075-2.339-2.199-3.465-3.401-0.462-0.51-0.814-0.936-1.052-1.27-0.17-0.238-0.232-0.36-0.244-0.384l-0.046-0.178-0.11-0.228c-0.358-0.726-0.56-1.546-0.56-2.42 0-3.026 2.43-5.446 5.376-5.446h-0c0 0 0.001 0 0.001 0 1.757 0 3.315 0.847 4.299 2.17l1.924 2.584zM28.144 16.93c1.154-1.358 1.856-3.133 1.856-5.070 0-0.005 0-0.010 0-0.014v0.001c0-4.334-3.482-7.846-7.778-7.846-1.676 0-3.228 0.534-4.498 1.444-0.658 0.472-1.24 1.044-1.724 1.694-0.49-0.654-1.059-1.213-1.701-1.678l-0.023-0.016c-1.245-0.903-2.803-1.444-4.488-1.444-0.004 0-0.009 0-0.013 0h0.001c-4.292 0-7.776 3.512-7.776 7.846 0 1.248 0.29 2.428 0.804 3.476 0.6 2.398 9.846 10.062 12.716 12.394 0.218 0.177 0.499 0.284 0.806 0.284 0.326 0 0.623-0.121 0.85-0.321l-0.001 0.001c2.228-1.97 8.436-7.55 10.97-10.75z"></path>
</symbol>
<symbol id="icon-heart-24" viewBox="0 0 32 32">
<path  d="M16 10.087l1.307-1.852c1.148-1.627 2.939-2.635 4.916-2.635 3.319 0 6.177 2.895 6.177 6.681v-0.002c0 0.015 0 0.030 0 0.045 0 1.64-0.567 3.149-1.504 4.325l-0.016 0.020-0.016 0.019c-2.351 3.133-8.123 8.649-10.548 10.92-1.505-1.296-4.329-3.769-6.895-6.243-1.359-1.308-2.621-2.595-3.571-3.693-0.476-0.552-0.853-1.032-1.12-1.427-0.132-0.197-0.228-0.357-0.291-0.483l0.003 0.006c-0.031-0.056-0.057-0.115-0.082-0.185 0 0 0-0.001 0 0l-0.037-0.16-0.069-0.147c-0.417-0.897-0.655-1.913-0.655-2.997 0-3.785 2.859-6.68 6.177-6.68 1.977 0 3.768 1.009 4.916 2.633l1.307 1.853zM14.925 6.073c-1.372-1.291-3.173-2.073-5.147-2.073-4.297 0-7.779 3.707-7.779 8.28 0 1.32 0.289 2.565 0.804 3.672 0.599 2.529 9.847 10.62 12.716 13.080 0.215 0.187 0.498 0.3 0.807 0.3 0.328 0 0.626-0.128 0.847-0.337l-0.001 0.001c2.228-2.080 8.437-7.969 10.971-11.347 1.157-1.448 1.856-3.306 1.856-5.326 0-0.015-0-0.030-0-0.045v0.002c0-4.573-3.483-8.28-7.777-8.28-1.973 0-3.776 0.783-5.148 2.073-0.393 0.371-0.746 0.776-1.058 1.214l-0.017 0.025c-0.328-0.463-0.681-0.869-1.071-1.236l-0.004-0.004z"></path>
</symbol>
<symbol id="icon-basket-16" viewBox="0 0 32 32">
<path d="M5.354 10.124c0.271-1.667 1.7-2.924 3.423-2.924 0 0 0 0 0.001 0h14.444c1.706 0 3.158 1.24 3.424 2.924l2.566 16.208c0.017 0.1 0.026 0.216 0.026 0.334 0 1.178-0.954 2.133-2.132 2.134h-22.212c-1.178-0.001-2.132-0.956-2.132-2.134 0-0.118 0.010-0.234 0.028-0.346l-0.002 0.012 2.566-16.208zM8.778 8.8c-0.92 0-1.7 0.668-1.844 1.574l-2.566 16.21c-0.052 0.324 0.2 0.616 0.526 0.616h22.212c0.294-0.001 0.532-0.24 0.532-0.534 0-0.029-0.002-0.057-0.007-0.085l0 0.003-2.566-16.21c-0.146-0.897-0.916-1.574-1.843-1.574-0 0-0.001 0-0.001 0h-14.442z"></path>
<path d="M10.466 7.572c0-3.019 2.448-5.467 5.467-5.467s5.467 2.448 5.467 5.467v0 0.668h-1.6v-0.668c0-2.136-1.731-3.867-3.867-3.867s-3.867 1.731-3.867 3.867v0.668h-1.6v-0.668z"></path>
</symbol>
<symbol id="icon-basket-24" viewBox="0 0 32 32">
<path d="M5.353 10.124c0.271-1.667 1.701-2.924 3.424-2.924 0 0 0 0 0 0h14.445c0 0 0 0 0 0 1.723 0 3.152 1.257 3.421 2.904l0.003 0.020 2.567 16.209c0.017 0.1 0.026 0.216 0.026 0.333 0 1.178-0.955 2.133-2.133 2.133h-22.213c-1.178-0-2.133-0.955-2.133-2.133 0-0.118 0.010-0.233 0.028-0.346l-0.002 0.012 2.567-16.209zM8.777 8.8c-0 0-0 0-0 0-0.928 0-1.698 0.677-1.842 1.564l-0.001 0.011-2.565 16.209c-0.004 0.025-0.006 0.053-0.006 0.083 0 0.294 0.239 0.533 0.533 0.533h22.211c0.294-0 0.533-0.239 0.533-0.533 0-0.029-0.002-0.058-0.007-0.086l0 0.003-2.565-16.211c-0.147-0.897-0.916-1.573-1.843-1.573-0 0-0 0-0.001 0h-14.445z"></path>
<path d="M10.467 7.573c0-3.019 2.447-5.467 5.467-5.467s5.467 2.447 5.467 5.467v0 0.667h-1.6v-0.667c0-2.135-1.731-3.867-3.867-3.867s-3.867 1.731-3.867 3.867v0 0.667h-1.6v-0.667z"></path>
</symbol>
<symbol id="icon-pin-16" viewBox="0 0 34 32">
<path d="M16.364 5c-4.87 0-8.818 3.948-8.818 8.818 0 3.416 2.22 6.718 4.635 9.267 1.187 1.253 2.377 2.278 3.272 2.991 0.359 0.286 0.67 0.521 0.911 0.698 0.242-0.178 0.552-0.412 0.911-0.698 0.895-0.712 2.085-1.738 3.272-2.991 2.415-2.549 4.635-5.851 4.635-9.267 0-4.87-3.948-8.818-8.818-8.818zM16.364 28c-0.555 0.832-0.555 0.832-0.555 0.832l-0.003-0.002-0.007-0.005-0.025-0.017-0.090-0.061c-0.077-0.053-0.188-0.131-0.328-0.232-0.28-0.202-0.676-0.497-1.15-0.874-0.946-0.753-2.21-1.842-3.478-3.18-2.494-2.633-5.183-6.422-5.183-10.642 0-5.975 4.843-10.818 10.818-10.818s10.818 4.843 10.818 10.818c0 4.22-2.689 8.009-5.183 10.642-1.268 1.338-2.532 2.426-3.478 3.18-0.474 0.377-0.87 0.672-1.15 0.874-0.14 0.101-0.251 0.179-0.328 0.232l-0.114 0.078-0.007 0.005-0.002 0.002c0 0-0.001 0.001-0.556-0.831zM16.364 28l0.556 0.831c-0.336 0.224-0.775 0.224-1.111 0l0.555-0.832z"></path>
<path d="M16.364 11.545c-1.255 0-2.273 1.018-2.273 2.273s1.018 2.273 2.273 2.273c1.255 0 2.273-1.018 2.273-2.273s-1.018-2.273-2.273-2.273zM12.091 13.818c0-2.36 1.913-4.273 4.273-4.273s4.273 1.913 4.273 4.273c0 2.36-1.913 4.273-4.273 4.273s-4.273-1.913-4.273-4.273z"></path>
</symbol>
<symbol id="icon-pin-24" viewBox="0 0 32 32">
<path d="M7.467 13.6c0-4.882 3.842-8.8 8.533-8.8s8.533 3.918 8.533 8.8c0 2.167-1.097 4.46-2.721 6.719-1.614 2.246-3.664 4.349-5.425 6.141-0.213 0.217-0.563 0.217-0.776 0-1.761-1.793-3.811-3.896-5.425-6.141-1.623-2.259-2.721-4.552-2.721-6.719zM16 3.2c-5.618 0-10.133 4.678-10.133 10.4 0 2.674 1.335 5.306 3.021 7.653 1.696 2.361 3.833 4.547 5.582 6.329 0.84 0.855 2.219 0.855 3.059 0 1.749-1.781 3.886-3.968 5.582-6.329 1.686-2.347 3.021-4.978 3.021-7.653 0-5.722-4.516-10.4-10.133-10.4zM13.467 13.333c0-1.399 1.134-2.533 2.533-2.533s2.533 1.134 2.533 2.533-1.134 2.533-2.533 2.533c-1.399 0-2.533-1.134-2.533-2.533zM16 9.2c-2.283 0-4.133 1.851-4.133 4.133s1.851 4.133 4.133 4.133 4.133-1.851 4.133-4.133c0-2.283-1.851-4.133-4.133-4.133z"></path>
</symbol>
</defs>
</svg>
