<svg xmlns="http://www.w3.org/2000/svg" width="32" height="32"><path d="M4 9.127a1 1 0 0 1 1-1h22a1 1 0 0 1 1 1v17.967c0 1.923-1.497 3.567-3.444 3.567H7.445c-1.948 0-3.444-1.643-3.444-3.567V9.127zm2 1v16.967c0 .912.692 1.567 1.444 1.567h17.111c.752 0 1.444-.655 1.444-1.567V10.127h-20z"/><path d="M11.533 11.909a1 1 0 0 0 1-1V6.751c0-.398.06-.78.171-1.137.124-.4.312-.771.552-1.1A3.635 3.635 0 0 1 16.2 2.999c1.767 0 3.262 1.285 3.597 3.019.046.236.07.481.07.732v4.158a1 1 0 0 0 2 0V6.75a5.82 5.82 0 0 0-.106-1.111C21.253 3.007 18.968.999 16.2.999a5.634 5.634 0 0 0-4.561 2.338 5.738 5.738 0 0 0-.844 1.684 5.823 5.823 0 0 0-.261 1.729v4.158a1 1 0 0 0 1 1z"/></svg>