<!-- Generated by IcoMoon.io -->
<svg version="1.1" xmlns="http://www.w3.org/2000/svg" width="32" height="32" viewBox="0 0 32 32">
<title>basket-24</title>
<path d="M4 9.127c0-0.552 0.448-1 1-1h22c0.552 0 1 0.448 1 1v17.967c0 1.923-1.497 3.567-3.444 3.567h-17.111c-1.948 0-3.444-1.643-3.444-3.567v-17.967zM6 10.127v16.967c0 0.912 0.692 1.567 1.444 1.567h17.111c0.752 0 1.444-0.655 1.444-1.567v-16.967h-20z"></path>
<path d="M11.533 11.909c0.552 0 1-0.448 1-1v-4.158c0-0.398 0.060-0.78 0.171-1.137 0.124-0.4 0.312-0.771 0.552-1.1 0.673-0.925 1.744-1.515 2.944-1.515 1.767 0 3.262 1.285 3.597 3.019 0.046 0.236 0.070 0.481 0.070 0.732v4.158c0 0.552 0.448 1 1 1s1-0.448 1-1v-4.158c0-0.379-0.036-0.751-0.106-1.111-0.508-2.632-2.793-4.64-5.561-4.64-1.876 0-3.534 0.926-4.561 2.338-0.367 0.504-0.655 1.072-0.844 1.684-0.17 0.547-0.261 1.129-0.261 1.729v4.158c0 0.552 0.448 1 1 1z"></path>
</svg>
