<!-- Generated by IcoMoon.io -->
<svg version="1.1" xmlns="http://www.w3.org/2000/svg" width="32" height="32" viewBox="0 0 32 32">
<title>heart-24</title>
<path fill="#4e4e4e" d="M16 10.087l1.307-1.852c1.148-1.627 2.939-2.635 4.916-2.635 3.319 0 6.177 2.895 6.177 6.681v-0.002c0 0.015 0 0.030 0 0.045 0 1.64-0.567 3.149-1.504 4.325l-0.016 0.020-0.016 0.019c-2.351 3.133-8.123 8.649-10.548 10.92-1.505-1.296-4.329-3.769-6.895-6.243-1.359-1.308-2.621-2.595-3.571-3.693-0.476-0.552-0.853-1.032-1.12-1.427-0.132-0.197-0.228-0.357-0.291-0.483l0.003 0.006c-0.031-0.056-0.057-0.115-0.082-0.185 0 0 0-0.001 0 0l-0.037-0.16-0.069-0.147c-0.417-0.897-0.655-1.913-0.655-2.997 0-3.785 2.859-6.68 6.177-6.68 1.977 0 3.768 1.009 4.916 2.633l1.307 1.853zM14.925 6.073c-1.372-1.291-3.173-2.073-5.147-2.073-4.297 0-7.779 3.707-7.779 8.28 0 1.32 0.289 2.565 0.804 3.672 0.599 2.529 9.847 10.62 12.716 13.080 0.215 0.187 0.498 0.3 0.807 0.3 0.328 0 0.626-0.128 0.847-0.337l-0.001 0.001c2.228-2.080 8.437-7.969 10.971-11.347 1.157-1.448 1.856-3.306 1.856-5.326 0-0.015-0-0.030-0-0.045v0.002c0-4.573-3.483-8.28-7.777-8.28-1.973 0-3.776 0.783-5.148 2.073-0.393 0.371-0.746 0.776-1.058 1.214l-0.017 0.025c-0.328-0.463-0.681-0.869-1.071-1.236l-0.004-0.004z"></path>
</svg>
