<svg xmlns="http://www.w3.org/2000/svg" width="32" height="32"><path d="m16 11.154 1.924-2.584a5.351 5.351 0 0 1 4.298-2.17c2.95 0 5.378 2.418 5.378 5.446v-.001.017a5.425 5.425 0 0 1-1.288 3.52l-.026.03-.022.028c-2.158 2.724-7.328 7.452-9.968 9.812l-.291-.232a165.158 165.158 0 0 1-6.077-5.248l-.051-.045a57.434 57.434 0 0 1-3.465-3.401c-.462-.51-.814-.936-1.052-1.27a3.007 3.007 0 0 1-.244-.384l-.046-.178-.11-.228a5.452 5.452 0 0 1-.56-2.42C4.4 8.82 6.83 6.4 9.776 6.4h.001a5.34 5.34 0 0 1 4.299 2.17L16 11.154zm12.144 5.776A7.813 7.813 0 0 0 30 11.86v-.014.001c0-4.334-3.482-7.846-7.778-7.846a7.694 7.694 0 0 0-4.498 1.444A7.87 7.87 0 0 0 16 7.139a7.931 7.931 0 0 0-1.701-1.678l-.023-.016a7.634 7.634 0 0 0-4.488-1.444h-.013.001C5.484 4.001 2 7.513 2 11.847c0 1.248.29 2.428.804 3.476.6 2.398 9.846 10.062 12.716 12.394a1.28 1.28 0 0 0 1.656-.037l-.001.001c2.228-1.97 8.436-7.55 10.97-10.75z"/></svg>