<svg aria-hidden="true" style="position: absolute; width: 0; height: 0; overflow: hidden;" version="1.1" xmlns="http://www.w3.org/2000/svg" xmlns:xlink="http://www.w3.org/1999/xlink">
  <defs>
    <symbol id="icon-heart-24" viewBox="0 0 32 32">
     <path d="M9.013 4.059c-0.881 0.085-1.923 0.413-2.759 0.865-2.279 1.235-3.816 3.559-4.179 6.315-0.091 0.691-0.036 2.129 0.107 2.795 0.168 0.783 0.696 2.227 1.003 2.739 1.173 1.96 4.924 5.755 10.723 10.849 0.889 0.78 1.728 1.479 1.865 1.552 0.181 0.096 0.333 0.133 0.547 0.133s0.367-0.037 0.548-0.133c0.329-0.175 1.935-1.689 4.751-4.48 3.704-3.672 5.803-5.98 6.884-7.568 0.612-0.897 1.093-2.047 1.317-3.144 0.137-0.676 0.191-2.077 0.104-2.741-0.223-1.695-0.88-3.231-1.901-4.441-2.889-3.431-7.803-3.725-10.979-0.661-0.274 0.261-0.528 0.536-0.765 0.826l-0.013 0.016c-0.082 0.121-0.17 0.226-0.267 0.323l0-0c-0.097-0.097-0.184-0.202-0.262-0.315l-0.005-0.008c-0.352-0.475-1.249-1.317-1.764-1.659-1.564-1.033-3.152-1.439-4.956-1.263zM10.576 5.657c0.561 0.083 1.125 0.249 1.612 0.473 1.139 0.527 1.915 1.252 3.039 2.843 0.409 0.58 0.757 1.053 0.773 1.053s0.364-0.473 0.773-1.053c1.123-1.588 1.891-2.307 3.041-2.847 0.706-0.329 1.533-0.521 2.405-0.521 0.619 0 1.216 0.097 1.776 0.276l-0.041-0.011c2.237 0.724 3.9 2.699 4.343 5.156 0.112 0.621 0.111 1.913-0.001 2.547-0.389 2.189-1.665 3.855-7.2 9.391-2.951 2.952-4.696 4.624-4.804 4.599-0.083-0.019-2.031-1.719-3.625-3.163-4.739-4.292-7.977-7.733-8.321-8.841-0.091-0.272-0.169-0.475-0.255-0.675l0.023 0.060c-0.184-0.446-0.336-0.969-0.431-1.511l-0.007-0.046c-0.087-0.504-0.072-1.807 0.028-2.36 0.556-3.1 3.076-5.389 5.965-5.421 0.288-0.003 0.696 0.020 0.907 0.052z"></path>
    </symbol>
    <symbol id="icon-heart-16" viewBox="0 0 32 32">
     <path d="M8.986 4.054c-1.784 0.2-3.396 0.974-4.664 2.242-1.16 1.151-1.959 2.664-2.215 4.355l-0.005 0.043c-0.098 0.644-0.094 1.732 0.010 2.392 0.16 1.014 0.77 2.61 1.264 3.302 1.446 2.026 5.398 5.756 10.97 10.354 1.424 1.174 1.516 1.232 1.974 1.23 0.018 0.001 0.039 0.002 0.060 0.002 0.182 0 0.354-0.043 0.506-0.121l-0.006 0.003c0.224-0.118 1.182-0.958 3.172-2.784 4.752-4.352 7.85-7.578 8.796-9.152 0.444-0.74 0.8-1.65 0.99-2.534 0.122-0.56 0.166-1.906 0.086-2.518-0.434-3.272-2.798-5.91-5.958-6.646-0.527-0.13-1.132-0.204-1.755-0.204-1.205 0-2.344 0.278-3.358 0.774l0.045-0.020c-0.989 0.482-1.827 1.125-2.512 1.905l-0.008 0.009c-0.115 0.151-0.239 0.285-0.375 0.405l-0.003 0.003c-0.022 0-0.192-0.184-0.378-0.408-0.816-0.972-2.132-1.854-3.408-2.28-0.749-0.243-1.611-0.383-2.506-0.383-0.254 0-0.506 0.011-0.754 0.033l0.032-0.002zM10.694 6.478c0.544 0.1 0.824 0.188 1.324 0.42 1.026 0.474 1.502 0.93 2.872 2.756 0.584 0.776 1.084 1.412 1.11 1.412s0.508-0.612 1.068-1.36c1.35-1.802 1.742-2.196 2.68-2.692 0.868-0.46 1.736-0.648 2.748-0.598 0.794 0.040 1.316 0.176 2.064 0.542 2.050 1.004 3.212 3.094 3.010 5.416-0.122 1.42-0.634 2.386-2.176 4.106-1.734 1.932-4.382 4.514-7.98 7.778-0.588 0.532-1.092 0.968-1.12 0.968-0.062 0-2.43-1.972-3.874-3.228-3.1-2.694-5.63-5.138-6.712-6.482-0.448-0.556-0.7-1.024-0.986-1.816-0.201-0.552-0.317-1.189-0.317-1.854 0-0.801 0.169-1.563 0.473-2.252l-0.014 0.036c0.734-1.615 2.18-2.795 3.927-3.146l0.035-0.006c0.512-0.094 1.354-0.094 1.868 0z"></path>
    </symbol>
    <symbol id="icon-pin-16" viewBox="0 0 34 32">
     <path d="M16.364 5c-4.87 0-8.818 3.948-8.818 8.818 0 3.416 2.22 6.718 4.635 9.267 1.187 1.253 2.377 2.278 3.272 2.991 0.359 0.286 0.67 0.521 0.911 0.698 0.242-0.178 0.552-0.412 0.911-0.698 0.895-0.712 2.085-1.738 3.272-2.991 2.415-2.549 4.635-5.851 4.635-9.267 0-4.87-3.948-8.818-8.818-8.818zM16.364 28c-0.555 0.832-0.555 0.832-0.555 0.832l-0.003-0.002-0.007-0.005-0.025-0.017-0.090-0.061c-0.077-0.053-0.188-0.131-0.328-0.232-0.28-0.202-0.676-0.497-1.15-0.874-0.946-0.753-2.21-1.842-3.478-3.18-2.494-2.633-5.183-6.422-5.183-10.642 0-5.975 4.843-10.818 10.818-10.818s10.818 4.843 10.818 10.818c0 4.22-2.689 8.009-5.183 10.642-1.268 1.338-2.532 2.426-3.478 3.18-0.474 0.377-0.87 0.672-1.15 0.874-0.14 0.101-0.251 0.179-0.328 0.232l-0.114 0.078-0.007 0.005-0.002 0.002c0 0-0.001 0.001-0.556-0.831zM16.364 28l0.556 0.831c-0.336 0.224-0.775 0.224-1.111 0l0.555-0.832z"></path>
      <path d="M16.364 11.545c-1.255 0-2.273 1.018-2.273 2.273s1.018 2.273 2.273 2.273c1.255 0 2.273-1.018 2.273-2.273s-1.018-2.273-2.273-2.273zM12.091 13.818c0-2.36 1.913-4.273 4.273-4.273s4.273 1.913 4.273 4.273c0 2.36-1.913 4.273-4.273 4.273s-4.273-1.913-4.273-4.273z"></path>
    </symbol>
    <symbol id="icon-pin-24" viewBox="0 0 32 32">
     <path d="M7.467 13.6c0-4.882 3.842-8.8 8.533-8.8s8.533 3.918 8.533 8.8c0 2.167-1.097 4.46-2.721 6.719-1.614 2.246-3.664 4.349-5.425 6.141-0.213 0.217-0.563 0.217-0.776 0-1.761-1.793-3.811-3.896-5.425-6.141-1.623-2.259-2.721-4.552-2.721-6.719zM16 3.2c-5.618 0-10.133 4.678-10.133 10.4 0 2.674 1.335 5.306 3.021 7.653 1.696 2.361 3.833 4.547 5.582 6.329 0.84 0.855 2.219 0.855 3.059 0 1.749-1.781 3.886-3.968 5.582-6.329 1.686-2.347 3.021-4.978 3.021-7.653 0-5.722-4.516-10.4-10.133-10.4zM13.467 13.333c0-1.399 1.134-2.533 2.533-2.533s2.533 1.134 2.533 2.533-1.134 2.533-2.533 2.533c-1.399 0-2.533-1.134-2.533-2.533zM16 9.2c-2.283 0-4.133 1.851-4.133 4.133s1.851 4.133 4.133 4.133 4.133-1.851 4.133-4.133c0-2.283-1.851-4.133-4.133-4.133z"></path>
    </symbol>
  </defs>
</svg>
