<svg aria-hidden="true" style="position: absolute; width: 0; height: 0; overflow: hidden;" version="1.1" xmlns="http://www.w3.org/2000/svg" xmlns:xlink="http://www.w3.org/1999/xlink">
<defs>
<symbol id="icon-pin-16" viewBox="0 0 34 32">
<path d="M16.364 5c-4.87 0-8.818 3.948-8.818 8.818 0 3.416 2.22 6.718 4.635 9.267 1.187 1.253 2.377 2.278 3.272 2.991 0.359 0.286 0.67 0.521 0.911 0.698 0.242-0.178 0.552-0.412 0.911-0.698 0.895-0.712 2.085-1.738 3.272-2.991 2.415-2.549 4.635-5.851 4.635-9.267 0-4.87-3.948-8.818-8.818-8.818zM16.364 28c-0.555 0.832-0.555 0.832-0.555 0.832l-0.003-0.002-0.007-0.005-0.025-0.017-0.090-0.061c-0.077-0.053-0.188-0.131-0.328-0.232-0.28-0.202-0.676-0.497-1.15-0.874-0.946-0.753-2.21-1.842-3.478-3.18-2.494-2.633-5.183-6.422-5.183-10.642 0-5.975 4.843-10.818 10.818-10.818s10.818 4.843 10.818 10.818c0 4.22-2.689 8.009-5.183 10.642-1.268 1.338-2.532 2.426-3.478 3.18-0.474 0.377-0.87 0.672-1.15 0.874-0.14 0.101-0.251 0.179-0.328 0.232l-0.114 0.078-0.007 0.005-0.002 0.002c0 0-0.001 0.001-0.556-0.831zM16.364 28l0.556 0.831c-0.336 0.224-0.775 0.224-1.111 0l0.555-0.832z"></path>
<path d="M16.364 11.545c-1.255 0-2.273 1.018-2.273 2.273s1.018 2.273 2.273 2.273c1.255 0 2.273-1.018 2.273-2.273s-1.018-2.273-2.273-2.273zM12.091 13.818c0-2.36 1.913-4.273 4.273-4.273s4.273 1.913 4.273 4.273c0 2.36-1.913 4.273-4.273 4.273s-4.273-1.913-4.273-4.273z"></path>
</symbol>
<symbol id="icon-pin-24" viewBox="0 0 32 32">
<path d="M15.818 5c-4.87 0-8.818 3.948-8.818 8.818 0 3.416 2.22 6.718 4.635 9.267 1.187 1.253 2.377 2.278 3.272 2.991 0.359 0.286 0.669 0.521 0.911 0.698 0.242-0.177 0.552-0.412 0.911-0.698 0.895-0.713 2.085-1.738 3.272-2.991 2.415-2.549 4.635-5.851 4.635-9.267 0-4.87-3.948-8.818-8.818-8.818zM15.818 28c-0.555 0.832-0.555 0.832-0.555 0.832l-0.003-0.002-0.007-0.005-0.025-0.017-0.090-0.062c-0.077-0.053-0.188-0.131-0.328-0.232-0.28-0.202-0.676-0.497-1.15-0.874-0.946-0.753-2.21-1.842-3.478-3.18-2.494-2.633-5.183-6.422-5.183-10.642 0-5.975 4.843-10.818 10.818-10.818s10.818 4.843 10.818 10.818c0 4.22-2.689 8.009-5.183 10.642-1.268 1.338-2.532 2.426-3.478 3.18-0.474 0.377-0.87 0.672-1.15 0.874-0.14 0.101-0.251 0.179-0.328 0.232l-0.090 0.062-0.025 0.017-0.007 0.005-0.002 0.001c0 0-0.001 0.001-0.556-0.831zM15.818 28l0.556 0.831c-0.336 0.224-0.775 0.224-1.111 0.001l0.555-0.832z"></path>
<path d="M15.818 11.545c-1.255 0-2.273 1.018-2.273 2.273s1.017 2.273 2.273 2.273 2.273-1.018 2.273-2.273c0-1.255-1.018-2.273-2.273-2.273zM11.545 13.818c0-2.36 1.913-4.273 4.273-4.273s4.273 1.913 4.273 4.273c0 2.36-1.913 4.273-4.273 4.273s-4.273-1.913-4.273-4.273z"></path>
</symbol>
<symbol id="icon-heart-16" viewBox="0 0 32 32">
<path d="M16 11.154l1.924-2.584c0.99-1.326 2.55-2.17 4.298-2.17 2.95 0 5.378 2.418 5.378 5.446v-0.001c0 0.006 0 0.011 0 0.017 0 1.345-0.487 2.577-1.288 3.52l-0.026 0.030-0.022 0.028c-2.158 2.724-7.328 7.452-9.968 9.812l-0.291-0.232c-2.116-1.741-4.189-3.532-6.077-5.248l-0.051-0.045c-1.192-1.075-2.339-2.199-3.465-3.401-0.462-0.51-0.814-0.936-1.052-1.27-0.17-0.238-0.232-0.36-0.244-0.384l-0.046-0.178-0.11-0.228c-0.358-0.726-0.56-1.546-0.56-2.42 0-3.026 2.43-5.446 5.376-5.446h-0c0 0 0.001 0 0.001 0 1.757 0 3.315 0.847 4.299 2.17l1.924 2.584zM28.144 16.93c1.154-1.358 1.856-3.133 1.856-5.070 0-0.005 0-0.010 0-0.014v0.001c0-4.334-3.482-7.846-7.778-7.846-1.676 0-3.228 0.534-4.498 1.444-0.658 0.472-1.24 1.044-1.724 1.694-0.49-0.654-1.059-1.213-1.701-1.678l-0.023-0.016c-1.245-0.903-2.803-1.444-4.488-1.444-0.004 0-0.009 0-0.013 0h0.001c-4.292 0-7.776 3.512-7.776 7.846 0 1.248 0.29 2.428 0.804 3.476 0.6 2.398 9.846 10.062 12.716 12.394 0.218 0.177 0.499 0.284 0.806 0.284 0.326 0 0.623-0.121 0.85-0.321l-0.001 0.001c2.228-1.97 8.436-7.55 10.97-10.75z"></path>
</symbol>
<symbol id="icon-heart-24" viewBox="0 0 32 32">
<path d="M16 10.087l1.307-1.852c1.148-1.627 2.939-2.635 4.916-2.635 3.319 0 6.177 2.895 6.177 6.681v-0.002c0 0.015 0 0.030 0 0.045 0 1.64-0.567 3.149-1.504 4.325l-0.016 0.020-0.016 0.019c-2.351 3.133-8.123 8.649-10.548 10.92-1.505-1.296-4.329-3.769-6.895-6.243-1.359-1.308-2.621-2.595-3.571-3.693-0.476-0.552-0.853-1.032-1.12-1.427-0.132-0.197-0.228-0.357-0.291-0.483l0.003 0.006c-0.031-0.056-0.057-0.115-0.082-0.185 0 0 0-0.001 0 0l-0.037-0.16-0.069-0.147c-0.417-0.897-0.655-1.913-0.655-2.997 0-3.785 2.859-6.68 6.177-6.68 1.977 0 3.768 1.009 4.916 2.633l1.307 1.853zM14.925 6.073c-1.372-1.291-3.173-2.073-5.147-2.073-4.297 0-7.779 3.707-7.779 8.28 0 1.32 0.289 2.565 0.804 3.672 0.599 2.529 9.847 10.62 12.716 13.080 0.215 0.187 0.498 0.3 0.807 0.3 0.328 0 0.626-0.128 0.847-0.337l-0.001 0.001c2.228-2.080 8.437-7.969 10.971-11.347 1.157-1.448 1.856-3.306 1.856-5.326 0-0.015-0-0.030-0-0.045v0.002c0-4.573-3.483-8.28-7.777-8.28-1.973 0-3.776 0.783-5.148 2.073-0.393 0.371-0.746 0.776-1.058 1.214l-0.017 0.025c-0.328-0.463-0.681-0.869-1.071-1.236l-0.004-0.004z"></path>
</symbol>
<symbol id="icon-basket-24" viewBox="0 0 32 32">
<path d="M4 9.127c0-0.552 0.448-1 1-1h22c0.552 0 1 0.448 1 1v17.967c0 1.923-1.497 3.567-3.444 3.567h-17.111c-1.948 0-3.444-1.643-3.444-3.567v-17.967zM6 10.127v16.967c0 0.912 0.692 1.567 1.444 1.567h17.111c0.752 0 1.444-0.655 1.444-1.567v-16.967h-20z"></path>
<path d="M11.533 11.909c0.552 0 1-0.448 1-1v-4.158c0-0.398 0.060-0.78 0.171-1.137 0.124-0.4 0.312-0.771 0.552-1.1 0.673-0.925 1.744-1.515 2.944-1.515 1.767 0 3.262 1.285 3.597 3.019 0.046 0.236 0.070 0.481 0.070 0.732v4.158c0 0.552 0.448 1 1 1s1-0.448 1-1v-4.158c0-0.379-0.036-0.751-0.106-1.111-0.508-2.632-2.793-4.64-5.561-4.64-1.876 0-3.534 0.926-4.561 2.338-0.367 0.504-0.655 1.072-0.844 1.684-0.17 0.547-0.261 1.129-0.261 1.729v4.158c0 0.552 0.448 1 1 1z"></path>
</symbol>
<symbol id="icon-basket-16" viewBox="0 0 32 32">
<path d="M4 9.127c0-0.552 0.448-1 1-1h22c0.552 0 1 0.448 1 1v17.967c0 1.923-1.497 3.567-3.444 3.567h-17.111c-1.948 0-3.444-1.643-3.444-3.567v-17.967zM6 10.127v16.967c0 0.912 0.692 1.567 1.444 1.567h17.111c0.752 0 1.444-0.655 1.444-1.567v-16.967h-20z"></path>
<path d="M11.533 11.909c0.552 0 1-0.448 1-1v-4.158c0-0.398 0.060-0.78 0.171-1.137 0.124-0.4 0.312-0.771 0.552-1.1 0.673-0.925 1.744-1.515 2.944-1.515 1.767 0 3.262 1.285 3.597 3.019 0.046 0.236 0.070 0.481 0.070 0.732v4.158c0 0.552 0.448 1 1 1s1-0.448 1-1v-4.158c0-0.379-0.036-0.751-0.106-1.111-0.508-2.632-2.793-4.64-5.561-4.64-1.876 0-3.534 0.926-4.561 2.338-0.367 0.504-0.655 1.072-0.844 1.684-0.17 0.547-0.261 1.129-0.261 1.729v4.158c0 0.552 0.448 1 1 1z"></path>
</symbol>
</defs>
</svg>
