<svg xmlns="http://www.w3.org/2000/svg" width="32" height="32"><path d="m16 10.087 1.307-1.852C18.455 6.608 20.246 5.6 22.223 5.6c3.319 0 6.177 2.895 6.177 6.681v-.002.045c0 1.64-.567 3.149-1.504 4.325l-.016.02-.016.019c-2.351 3.133-8.123 8.649-10.548 10.92-1.505-1.296-4.329-3.769-6.895-6.243C8.062 20.057 6.8 18.77 5.85 17.672a16.092 16.092 0 0 1-1.12-1.427 4.645 4.645 0 0 1-.291-.483l.003.006a1.224 1.224 0 0 1-.082-.185s0-.001 0 0l-.037-.16-.069-.147a7.093 7.093 0 0 1-.655-2.997c0-3.785 2.859-6.68 6.177-6.68 1.977 0 3.768 1.009 4.916 2.633l1.307 1.853zm-1.075-4.014C13.553 4.782 11.752 4 9.778 4c-4.297 0-7.779 3.707-7.779 8.28 0 1.32.289 2.565.804 3.672.599 2.529 9.847 10.62 12.716 13.08.215.187.498.3.807.3.328 0 .626-.128.847-.337l-.001.001c2.228-2.08 8.437-7.969 10.971-11.347a8.516 8.516 0 0 0 1.856-5.326v-.045.002c0-4.573-3.483-8.28-7.777-8.28-1.973 0-3.776.783-5.148 2.073a8.245 8.245 0 0 0-1.058 1.214l-.017.025a8.145 8.145 0 0 0-1.071-1.236l-.004-.004z"/></svg>