<svg xmlns="http://www.w3.org/2000/svg" width="32" height="32"><path d="M15.818 5A8.818 8.818 0 0 0 7 13.818c0 3.416 2.22 6.718 4.635 9.267a32.226 32.226 0 0 0 4.183 3.689 32.226 32.226 0 0 0 4.183-3.689c2.415-2.549 4.635-5.851 4.635-9.267A8.818 8.818 0 0 0 15.818 5zm0 23-.555.832-.003-.002-.007-.005-.025-.017-.09-.062a31.12 31.12 0 0 1-1.478-1.106 34.21 34.21 0 0 1-3.478-3.18c-2.494-2.633-5.183-6.422-5.183-10.642C4.999 7.843 9.842 3 15.817 3s10.818 4.843 10.818 10.818c0 4.22-2.689 8.009-5.183 10.642a34.33 34.33 0 0 1-4.628 4.054c-.14.101-.251.179-.328.232l-.09.062-.025.017-.007.005-.002.001s-.001.001-.556-.831zm0 0 .556.831a1.004 1.004 0 0 1-1.111.001l.555-.832z"/><path d="M15.818 11.545a2.273 2.273 0 1 0 0 4.547 2.273 2.273 0 0 0 0-4.547zm-4.273 2.273a4.273 4.273 0 1 1 8.546 0 4.273 4.273 0 0 1-8.546 0z"/></svg>