<?xml version="1.0" encoding="utf-8"?><svg xmlns="http://www.w3.org/2000/svg" xmlns:xlink="http://www.w3.org/1999/xlink"><symbol viewBox="0 0 32 32" id="icon-basket-16" xmlns="http://www.w3.org/2000/svg"><path d="M5.354 10.124A3.47 3.47 0 0 1 8.777 7.2h14.445a3.465 3.465 0 0 1 3.424 2.924l2.566 16.208a2.134 2.134 0 0 1-2.106 2.468H4.894a2.134 2.134 0 0 1-2.104-2.48l-.002.012 2.566-16.208zM8.778 8.8c-.92 0-1.7.668-1.844 1.574l-2.566 16.21c-.052.324.2.616.526.616h22.212a.534.534 0 0 0 .525-.619v.003l-2.566-16.21A1.87 1.87 0 0 0 23.222 8.8H8.779z"/><path d="M10.466 7.572a5.467 5.467 0 0 1 10.934 0v.668h-1.6v-.668a3.867 3.867 0 1 0-7.734 0v.668h-1.6v-.668z"/></symbol><symbol viewBox="0 0 32 32" id="icon-basket-24" xmlns="http://www.w3.org/2000/svg"><path d="M5.353 10.124A3.471 3.471 0 0 1 8.777 7.2h14.445a3.467 3.467 0 0 1 3.421 2.904l.003.02 2.567 16.209a2.133 2.133 0 0 1-2.107 2.466H4.893a2.133 2.133 0 0 1-2.105-2.479l-.002.012 2.567-16.209zM8.777 8.8c-.928 0-1.698.677-1.842 1.564l-.001.011-2.565 16.209a.533.533 0 0 0 .527.616h22.211a.533.533 0 0 0 .526-.619v.003l-2.565-16.211A1.87 1.87 0 0 0 23.225 8.8H8.779z"/><path d="M10.467 7.573a5.467 5.467 0 1 1 10.934 0v.667h-1.6v-.667a3.867 3.867 0 0 0-7.734 0v.667h-1.6v-.667z"/></symbol><symbol viewBox="0 0 32 32" id="icon-heart-16" xmlns="http://www.w3.org/2000/svg"><path d="m16 11.154 1.924-2.584a5.351 5.351 0 0 1 4.298-2.17c2.95 0 5.378 2.418 5.378 5.446v-.001.017a5.425 5.425 0 0 1-1.288 3.52l-.026.03-.022.028c-2.158 2.724-7.328 7.452-9.968 9.812l-.291-.232a165.158 165.158 0 0 1-6.077-5.248l-.051-.045a57.434 57.434 0 0 1-3.465-3.401c-.462-.51-.814-.936-1.052-1.27a3.007 3.007 0 0 1-.244-.384l-.046-.178-.11-.228a5.452 5.452 0 0 1-.56-2.42C4.4 8.82 6.83 6.4 9.776 6.4h.001a5.34 5.34 0 0 1 4.299 2.17L16 11.154zm12.144 5.776A7.813 7.813 0 0 0 30 11.86v-.014.001c0-4.334-3.482-7.846-7.778-7.846a7.694 7.694 0 0 0-4.498 1.444A7.87 7.87 0 0 0 16 7.139a7.931 7.931 0 0 0-1.701-1.678l-.023-.016a7.634 7.634 0 0 0-4.488-1.444h-.013.001C5.484 4.001 2 7.513 2 11.847c0 1.248.29 2.428.804 3.476.6 2.398 9.846 10.062 12.716 12.394a1.28 1.28 0 0 0 1.656-.037l-.001.001c2.228-1.97 8.436-7.55 10.97-10.75z"/></symbol><symbol viewBox="0 0 32 32" id="icon-heart-24" xmlns="http://www.w3.org/2000/svg"><path d="m16 10.087 1.307-1.852C18.455 6.608 20.246 5.6 22.223 5.6c3.319 0 6.177 2.895 6.177 6.681v-.002.045c0 1.64-.567 3.149-1.504 4.325l-.016.02-.016.019c-2.351 3.133-8.123 8.649-10.548 10.92-1.505-1.296-4.329-3.769-6.895-6.243C8.062 20.057 6.8 18.77 5.85 17.672a16.092 16.092 0 0 1-1.12-1.427 4.645 4.645 0 0 1-.291-.483l.003.006a1.224 1.224 0 0 1-.082-.185s0-.001 0 0l-.037-.16-.069-.147a7.093 7.093 0 0 1-.655-2.997c0-3.785 2.859-6.68 6.177-6.68 1.977 0 3.768 1.009 4.916 2.633l1.307 1.853zm-1.075-4.014C13.553 4.782 11.752 4 9.778 4c-4.297 0-7.779 3.707-7.779 8.28 0 1.32.289 2.565.804 3.672.599 2.529 9.847 10.62 12.716 13.08.215.187.498.3.807.3.328 0 .626-.128.847-.337l-.001.001c2.228-2.08 8.437-7.969 10.971-11.347a8.516 8.516 0 0 0 1.856-5.326v-.045.002c0-4.573-3.483-8.28-7.777-8.28-1.973 0-3.776.783-5.148 2.073a8.245 8.245 0 0 0-1.058 1.214l-.017.025a8.145 8.145 0 0 0-1.071-1.236l-.004-.004z"/></symbol><symbol viewBox="0 0 34 32" id="icon-pin-16" xmlns="http://www.w3.org/2000/svg"><path d="M16.364 5a8.818 8.818 0 0 0-8.818 8.818c0 3.416 2.22 6.718 4.635 9.267a32.226 32.226 0 0 0 4.183 3.689 32.108 32.108 0 0 0 4.183-3.689c2.415-2.549 4.635-5.851 4.635-9.267A8.818 8.818 0 0 0 16.364 5zm0 23-.555.832-.003-.002-.007-.005-.025-.017-.09-.061a31.12 31.12 0 0 1-1.478-1.106 34.21 34.21 0 0 1-3.478-3.18c-2.494-2.633-5.183-6.422-5.183-10.642 0-5.975 4.843-10.818 10.818-10.818s10.818 4.843 10.818 10.818c0 4.22-2.689 8.009-5.183 10.642a34.33 34.33 0 0 1-4.628 4.054c-.14.101-.251.179-.328.232l-.114.078-.007.005-.002.002s-.001.001-.556-.831zm0 0 .556.831a1.002 1.002 0 0 1-1.111 0l.555-.832z"/><path d="M16.364 11.545a2.273 2.273 0 1 0 0 4.547 2.273 2.273 0 0 0 0-4.547zm-4.273 2.273a4.273 4.273 0 1 1 8.546 0 4.273 4.273 0 0 1-8.546 0z"/></symbol><symbol viewBox="0 0 32 32" id="icon-pin-24" xmlns="http://www.w3.org/2000/svg"><path d="M7.467 13.6c0-4.882 3.842-8.8 8.533-8.8s8.533 3.918 8.533 8.8c0 2.167-1.097 4.46-2.721 6.719-1.614 2.246-3.664 4.349-5.425 6.141a.544.544 0 0 1-.776 0c-1.761-1.793-3.811-3.896-5.425-6.141-1.623-2.259-2.721-4.552-2.721-6.719zM16 3.2c-5.618 0-10.133 4.678-10.133 10.4 0 2.674 1.335 5.306 3.021 7.653 1.696 2.361 3.833 4.547 5.582 6.329.84.855 2.219.855 3.059 0 1.749-1.781 3.886-3.968 5.582-6.329 1.686-2.347 3.021-4.978 3.021-7.653 0-5.722-4.516-10.4-10.133-10.4zm-2.533 10.133a2.533 2.533 0 1 1 5.066 0 2.533 2.533 0 0 1-5.066 0zM16 9.2a4.133 4.133 0 1 0 0 8.266A4.133 4.133 0 0 0 16 9.2z"/></symbol></svg>