<svg aria-hidden="true" style="position: absolute; width: 0; height: 0; overflow: hidden;" version="1.1" xmlns="http://www.w3.org/2000/svg" xmlns:xlink="http://www.w3.org/1999/xlink">
<defs>
<symbol id="icon-heart-16" viewBox="0 0 64 64">
<path fill="none" stroke="#4e4e4e" style="stroke: var(--color1, #4e4e4e)" stroke-linejoin="miter" stroke-linecap="butt" stroke-miterlimit="4" stroke-width="4.8" d="M30.075 15.708l1.925 2.584 1.925-2.584c2.408-3.232 6.227-5.308 10.52-5.308 7.246 0 13.156 5.931 13.156 13.29 0 3.295-1.184 6.302-3.144 8.623l-0.025 0.029-0.024 0.030c-4.906 6.195-17.137 17.201-21.65 21.192-0.021 0.018-0.054 0.035-0.102 0.036s-0.081-0.014-0.103-0.032c-2.857-2.322-8.874-7.285-14.314-12.253-2.724-2.487-5.266-4.942-7.186-7.047-0.962-1.054-1.735-1.986-2.289-2.764-0.593-0.833-0.791-1.295-0.827-1.439l-0.062-0.248-0.112-0.229c-0.871-1.774-1.362-3.774-1.362-5.897 0-7.36 5.909-13.29 13.156-13.29 4.293 0 8.112 2.076 10.52 5.308z"></path>
</symbol>
<symbol id="icon-heart-24" viewBox="0 0 64 64">
<path fill="none" stroke="#4e4e4e" style="stroke: var(--color1, #4e4e4e)" stroke-linejoin="miter" stroke-linecap="butt" stroke-miterlimit="4" stroke-width="3.2" d="M30.693 15.546l1.307 1.853 1.307-1.853c2.566-3.637 6.616-5.946 11.137-5.946 7.614 0 13.955 6.603 13.955 14.962 0 3.729-1.271 7.127-3.36 9.737l-0.016 0.019-0.015 0.020c-4.964 6.617-17.261 18.292-21.754 22.485-0.338 0.315-0.83 0.323-1.175 0.028-2.861-2.454-8.892-7.706-14.35-12.967-2.731-2.633-5.295-5.245-7.241-7.497-0.974-1.127-1.772-2.14-2.355-3.004-0.606-0.898-0.89-1.508-0.97-1.849l-0.038-0.159-0.069-0.148c-0.932-2.003-1.459-4.266-1.459-6.667 0-8.359 6.341-14.962 13.956-14.962 4.522 0 8.571 2.309 11.137 5.946z"></path>
</symbol>
<symbol id="icon-pin-16" viewBox="0 0 57 64">
<path stroke-linejoin="miter" stroke-linecap="butt" stroke-miterlimit="4" stroke-width="4.2667" d="M49.778 26.311c0 11.282-10.745 22.939-18.731 31.379-1.412 1.492-3.793 1.492-5.205 0-7.986-8.44-18.731-20.097-18.731-31.379 0-12.568 9.551-22.756 21.333-22.756s21.333 10.188 21.333 22.756z"></path>
<path stroke-linejoin="miter" stroke-linecap="butt" stroke-miterlimit="4" stroke-width="4.2667" d="M35.556 24.889c0 3.927-3.184 7.111-7.111 7.111s-7.111-3.184-7.111-7.111c0-3.927 3.184-7.111 7.111-7.111s7.111 3.184 7.111 7.111z"></path>
</symbol>
<symbol id="icon-pin-24" viewBox="0 0 64 64">
<path d="M14.933 27.2c0-9.763 7.683-17.6 17.067-17.6s17.067 7.837 17.067 17.6c0 4.335-2.194 8.919-5.441 13.438-3.227 4.492-7.329 8.698-10.849 12.283-0.425 0.433-1.126 0.433-1.552 0-3.521-3.585-7.622-7.791-10.849-12.283-3.247-4.519-5.442-9.103-5.442-13.438zM32 6.4c-11.235 0-20.267 9.355-20.267 20.8 0 5.349 2.67 10.611 6.043 15.305 3.392 4.722 7.666 9.095 11.165 12.658 1.679 1.71 4.438 1.71 6.118 0 3.499-3.563 7.772-7.936 11.165-12.658 3.373-4.694 6.043-9.957 6.043-15.305 0-11.445-9.031-20.8-20.267-20.8zM26.933 26.667c0-2.798 2.269-5.067 5.067-5.067s5.067 2.268 5.067 5.067-2.268 5.067-5.067 5.067c-2.798 0-5.067-2.269-5.067-5.067zM32 18.4c-4.566 0-8.267 3.701-8.267 8.267s3.701 8.267 8.267 8.267 8.267-3.701 8.267-8.267c0-4.566-3.701-8.267-8.267-8.267z"></path>
</symbol>
</defs>
</svg>
